<svg width="48" height="48" viewBox="0 0 48 48" fill="none" xmlns="http://www.w3.org/2000/svg">
<path d="M38.463 22.7948C38.1227 22.3743 37.5057 22.3093 37.0854 22.6497L36.7445 22.9255C36.324 23.2659 36.2591 23.8828 36.5996 24.3033C36.7932 24.5424 37.0761 24.6666 37.3616 24.6666C37.578 24.6666 37.796 24.5951 37.9773 24.4483L38.3181 24.1725C38.7385 23.8321 38.8034 23.2153 38.463 22.7948Z" fill="white"/>
<path d="M35.659 25.0647C35.3187 24.6442 34.7018 24.5792 34.2814 24.9195L27.2775 30.5139C26.857 30.8543 26.7922 31.4711 27.1326 31.8916C27.3261 32.1308 27.609 32.2549 27.8945 32.2549C28.1109 32.2549 28.3289 32.1834 28.5102 32.0367L35.5141 26.4423C35.9345 26.102 35.9994 25.4853 35.659 25.0647Z" fill="white"/>
<path d="M42.1633 5.87672H5.83669C2.61834 5.87672 0 8.49506 0 11.7133V36.2868C0 39.5051 2.61834 42.1234 5.83669 42.1234H42.1633C45.3818 42.1234 48 39.5051 48 36.2868V11.7133C48 8.49506 45.3818 5.87672 42.1633 5.87672ZM39.3667 7.83581L23.9868 20.2678L8.60681 7.83581H39.3667ZM40.1368 40.1642H7.83675V17.2858L23.3722 29.8005C23.7309 30.0894 24.2426 30.0894 24.6013 29.8005L40.1367 17.2858V40.1642H40.1368ZM46.0408 36.2867C46.0408 38.4248 44.3014 40.1641 42.1633 40.1641H42.0961V15.2388C42.0961 14.8616 41.8796 14.518 41.5393 14.3552C41.1988 14.1923 40.7955 14.2394 40.502 14.4759L23.9868 27.7798L7.47159 14.4759C7.17778 14.2394 6.77428 14.1923 6.43425 14.3552C6.09394 14.518 5.87747 14.8616 5.87747 15.2388V40.1641H5.83659C3.69863 40.1642 1.95919 38.4248 1.95919 36.2868V11.7133C1.95919 9.68588 3.52369 8.01788 5.50866 7.85081L23.371 22.2894C23.5506 22.4347 23.7687 22.5072 23.9868 22.5072C24.2049 22.5072 24.423 22.4347 24.6025 22.2894L42.4672 7.84885C44.4636 8.00447 46.0408 9.67763 46.0408 11.7132V36.2867Z" fill="white"/>
</svg>
