<svg width="48" height="48" viewBox="0 0 48 48" fill="none" xmlns="http://www.w3.org/2000/svg">
<path d="M33.7005 0H14.2995C6.4147 0 0 6.4147 0 14.2995V33.7005C0 41.5853 6.4147 48 14.2995 48H33.7005C41.5853 48 48 41.5853 48 33.7005V14.2995C47.9999 6.4147 41.5852 0 33.7005 0ZM43.1712 33.7005C43.1712 38.931 38.931 43.1712 33.7005 43.1712H14.2995C9.069 43.1712 4.8288 38.931 4.8288 33.7005V14.2995C4.8288 9.06891 9.069 4.8288 14.2995 4.8288H33.7005C38.931 4.8288 43.1712 9.06891 43.1712 14.2995V33.7005Z" fill="white"/>
<path d="M24 11.5855C17.1546 11.5855 11.5855 17.1546 11.5855 23.9999C11.5855 30.8452 17.1546 36.4144 24 36.4144C30.8454 36.4144 36.4145 30.8453 36.4145 23.9999C36.4145 17.1545 30.8454 11.5855 24 11.5855ZM24 31.5857C19.8105 31.5857 16.4143 28.1895 16.4143 24C16.4143 19.8105 19.8106 16.4143 24 16.4143C28.1895 16.4143 31.5857 19.8105 31.5857 24C31.5857 28.1894 28.1894 31.5857 24 31.5857Z" fill="white"/>
<path d="M36.4382 14.6536C38.0811 14.6536 39.4129 13.3217 39.4129 11.6789C39.4129 10.036 38.0811 8.70419 36.4382 8.70419C34.7953 8.70419 33.4635 10.036 33.4635 11.6789C33.4635 13.3217 34.7953 14.6536 36.4382 14.6536Z" fill="white"/>
</svg>
