<svg width="48" height="48" viewBox="0 0 48 48" fill="none" xmlns="http://www.w3.org/2000/svg">
<path d="M35.9334 0.0190334H12.0285C5.40523 0.0190334 0 5.42427 0 12.0476V35.9905C0 42.5757 5.40523 47.981 12.0285 47.981H35.9715C42.5948 47.981 48 42.5757 48 35.9524V12.0476C47.9619 5.42427 42.5567 0.0190334 35.9334 0.0190334ZM15.9873 38.8454H9.13561V19.0515H15.9873V38.8454ZM12.5234 16.0063C10.5821 16.0063 9.02141 14.4457 9.02141 12.5044C9.02141 10.563 10.5821 9.00238 12.5234 9.00238C14.4647 9.00238 16.0254 10.563 16.0254 12.5044C15.9873 14.4457 14.4266 16.0063 12.5234 16.0063ZM38.8644 38.8454H38.8263H33.1166V29.253C33.1166 26.931 32.8121 23.9619 29.6527 23.9619C26.4171 23.9619 25.8842 26.4742 25.8842 29.1007V38.8454H20.1745V19.0515H25.5036V21.7161H25.6558C26.4933 20.1935 28.4346 19.0135 31.4798 19.0135C37.7605 19.0135 38.8644 22.6297 38.8644 27.9968V38.8454Z" fill="white"/>
</svg>
