<svg width="646" height="539" viewBox="0 0 646 539" fill="none" xmlns="http://www.w3.org/2000/svg">
<g clip-path="url(#clip0_6_498)">
<path d="M266.181 126.835H263.248V46.4974C263.248 40.3912 262.045 34.3449 259.708 28.7036C257.371 23.0622 253.945 17.9364 249.627 13.6187C245.308 9.30104 240.182 5.87607 234.539 3.53936C228.897 1.20266 222.85 -1.91032e-05 216.742 2.27583e-10H46.5057C40.3985 -1.91032e-05 34.3511 1.20266 28.7088 3.53936C23.0664 5.87607 17.9397 9.30104 13.6212 13.6187C9.30274 17.9364 5.87714 23.0622 3.54001 28.7036C1.20289 34.3449 -9.55337e-06 40.3913 0 46.4974V487.237C-5.73201e-06 493.343 1.20289 499.389 3.54003 505.03C5.87716 510.672 9.30275 515.797 13.6212 520.115C17.9397 524.433 23.0664 527.858 28.7088 530.195C34.3511 532.531 40.3985 533.734 46.5057 533.734H216.742C222.85 533.734 228.897 532.531 234.539 530.195C240.182 527.858 245.308 524.433 249.627 520.115C253.945 515.797 257.371 510.672 259.708 505.03C262.045 499.389 263.248 493.343 263.248 487.237V184.021H266.181V126.835Z" fill="#E6E6E6"/>
<path d="M218.619 12.097H196.397C197.419 14.602 197.809 17.3198 197.533 20.011C197.257 22.7021 196.323 25.2841 194.814 27.5295C193.305 29.7749 191.266 31.6147 188.878 32.8868C186.491 34.159 183.826 34.8245 181.12 34.8247H83.5941C80.8883 34.8245 78.2241 34.159 75.8361 32.8868C73.4482 31.6147 71.4098 29.7749 69.9005 27.5295C68.3913 25.2841 67.4575 22.7021 67.1814 20.011C66.9053 17.3198 67.2953 14.602 68.3172 12.097H47.5623C43.0015 12.097 38.4854 12.9952 34.2718 14.7402C30.0581 16.4852 26.2295 19.043 23.0046 22.2673C19.7796 25.4917 17.2214 29.3196 15.4761 33.5325C13.7307 37.7454 12.8324 42.2607 12.8324 46.8207V486.913C12.8324 491.473 13.7307 495.989 15.4761 500.201C17.2214 504.414 19.7796 508.242 23.0046 511.467C26.2295 514.691 30.0581 517.249 34.2717 518.994C38.4854 520.739 43.0015 521.637 47.5623 521.637H218.619C223.18 521.637 227.696 520.739 231.909 518.994C236.123 517.249 239.952 514.691 243.177 511.467C246.402 508.242 248.96 504.414 250.705 500.201C252.45 495.989 253.349 491.473 253.349 486.913V46.8207C253.349 42.2607 252.45 37.7454 250.705 33.5325C248.96 29.3196 246.402 25.4917 243.177 22.2673C239.952 19.043 236.123 16.4852 231.909 14.7402C227.696 12.9952 223.18 12.097 218.619 12.097Z" fill="white"/>
<path d="M82.6942 101.563H72.4809C72.1218 101.563 71.7774 101.706 71.5234 101.96C71.2695 102.213 71.1268 102.558 71.1268 102.917V107.399C71.1268 107.758 71.2695 108.102 71.5234 108.356C71.7774 108.61 72.1218 108.753 72.4809 108.753H74.1734V115.468H81.0017V108.753H82.6942C83.0533 108.753 83.3977 108.61 83.6516 108.356C83.9056 108.102 84.0482 107.758 84.0482 107.399V102.917C84.0482 102.558 83.9056 102.213 83.6516 101.96C83.3977 101.706 83.0533 101.563 82.6942 101.563Z" fill="#E6E6E6"/>
<path d="M92.9238 142.583C86.6688 133.432 83.4712 122.537 83.789 111.457C83.7946 111.202 83.7117 110.952 83.5541 110.751C83.3965 110.549 83.1741 110.409 82.9245 110.352V108.416H72.138V110.326H71.9894C71.6958 110.326 71.4145 110.443 71.2072 110.651C70.9999 110.858 70.8836 111.14 70.884 111.434C70.884 111.46 70.8851 111.487 70.8871 111.514C71.7368 123.358 68.8673 133.979 62.2785 143.378C61.8994 143.918 61.7057 144.566 61.7265 145.226L62.9059 181.703C62.9343 182.517 63.2758 183.288 63.8593 183.856C64.4427 184.424 65.223 184.744 66.0373 184.751H90.4348C91.2584 184.744 92.0467 184.416 92.632 183.837C93.2172 183.258 93.5531 182.473 93.568 181.649L94.0225 146.233C94.036 144.933 93.6527 143.66 92.9238 142.583Z" fill="#E6E6E6"/>
<path d="M89.0616 154.7H67.8254C67.5111 154.7 67.2004 154.768 66.9148 154.899C66.6292 155.03 66.3753 155.222 66.1707 155.46C65.966 155.699 65.8153 155.979 65.729 156.281C65.6426 156.583 65.6227 156.901 65.6705 157.211L68.8796 178.067H87.3066L91.2045 157.282C91.2636 156.967 91.2525 156.643 91.1721 156.333C91.0917 156.023 90.944 155.734 90.7394 155.488C90.5348 155.241 90.2784 155.043 89.9884 154.907C89.6984 154.771 89.382 154.7 89.0616 154.7Z" fill="white"/>
<path d="M196.387 210.836H186.174C185.815 210.836 185.471 210.979 185.217 211.232C184.963 211.486 184.82 211.831 184.82 212.19V216.672C184.82 217.031 184.963 217.375 185.217 217.629C185.471 217.883 185.815 218.026 186.174 218.026H187.867V224.741H194.695V218.026H196.387C196.747 218.026 197.091 217.883 197.345 217.629C197.599 217.375 197.741 217.031 197.741 216.672V212.19C197.741 211.831 197.599 211.486 197.345 211.232C197.091 210.979 196.747 210.836 196.387 210.836Z" fill="#E6E6E6"/>
<path d="M206.617 251.856C200.362 242.705 197.165 231.809 197.482 220.73C197.488 220.474 197.405 220.225 197.247 220.023C197.09 219.822 196.867 219.681 196.618 219.625V217.688H185.831V219.598H185.683C185.537 219.598 185.394 219.627 185.259 219.683C185.125 219.739 185.003 219.821 184.901 219.923C184.798 220.026 184.717 220.148 184.661 220.283C184.606 220.417 184.577 220.561 184.577 220.706C184.577 220.733 184.578 220.76 184.58 220.787C185.43 232.63 182.561 243.252 175.972 252.65C175.593 253.19 175.399 253.839 175.42 254.498L176.599 290.976C176.628 291.789 176.969 292.561 177.553 293.129C178.136 293.696 178.916 294.017 179.731 294.024H204.128C204.952 294.017 205.74 293.689 206.325 293.11C206.911 292.53 207.246 291.745 207.261 290.922L207.716 255.505C207.729 254.206 207.346 252.932 206.617 251.856Z" fill="#E6E6E6"/>
<path d="M202.755 263.973H181.519C181.204 263.973 180.894 264.041 180.608 264.172C180.323 264.303 180.069 264.495 179.864 264.733C179.659 264.972 179.509 265.252 179.422 265.554C179.336 265.856 179.316 266.173 179.364 266.484L182.573 287.339H201L204.898 266.554C204.957 266.239 204.946 265.916 204.865 265.605C204.785 265.295 204.637 265.007 204.433 264.76C204.228 264.514 203.972 264.316 203.682 264.179C203.392 264.043 203.075 263.973 202.755 263.973H202.755Z" fill="white"/>
<path d="M68.3356 365.315H63.4909C63.3206 365.315 63.1572 365.383 63.0368 365.504C62.9163 365.624 62.8486 365.787 62.8486 365.958V368.084C62.8486 368.254 62.9163 368.417 63.0368 368.538C63.1572 368.658 63.3206 368.726 63.4909 368.726H64.2938V371.911H67.5327V368.726H68.3356C68.5059 368.726 68.6693 368.658 68.7897 368.538C68.9102 368.417 68.9779 368.254 68.9779 368.084V365.958C68.9779 365.787 68.9102 365.624 68.7897 365.504C68.6693 365.383 68.5059 365.315 68.3356 365.315Z" fill="#E6E6E6"/>
<path d="M73.188 384.773C70.221 380.433 68.7043 375.264 68.855 370.009C68.8577 369.888 68.8183 369.769 68.7436 369.674C68.6688 369.578 68.5633 369.511 68.445 369.485V368.566H63.3284V369.472H63.2579C63.189 369.472 63.1207 369.486 63.057 369.512C62.9934 369.539 62.9355 369.577 62.8869 369.626C62.8382 369.675 62.7996 369.733 62.7733 369.797C62.747 369.86 62.7335 369.929 62.7336 369.998C62.7336 370.01 62.7341 370.023 62.735 370.036C63.2073 375.398 61.7602 380.755 58.6516 385.15C58.4718 385.406 58.3799 385.714 58.3898 386.027L58.9492 403.33C58.9626 403.716 59.1246 404.081 59.4014 404.351C59.6782 404.62 60.0483 404.772 60.4345 404.775H72.0074C72.398 404.772 72.772 404.617 73.0496 404.342C73.3272 404.067 73.4865 403.695 73.4936 403.304L73.7092 386.504C73.7156 385.888 73.5338 385.284 73.188 384.773Z" fill="#E6E6E6"/>
<path d="M71.5224 391.134H60.48V396.654H71.5224V391.134Z" fill="white"/>
<path d="M90.8874 365.315H86.0428C85.8725 365.315 85.7091 365.383 85.5886 365.504C85.4682 365.624 85.4005 365.787 85.4005 365.958V368.084C85.4005 368.254 85.4682 368.417 85.5886 368.538C85.7091 368.658 85.8725 368.726 86.0428 368.726H86.8456V371.911H90.0846V368.726H90.8874C91.0578 368.726 91.2212 368.658 91.3416 368.538C91.4621 368.417 91.5297 368.254 91.5297 368.084V365.958C91.5297 365.787 91.4621 365.624 91.3416 365.504C91.2212 365.383 91.0578 365.315 90.8874 365.315Z" fill="#E6E6E6"/>
<path d="M95.7398 384.773C92.7728 380.433 91.256 375.264 91.4068 370.009C91.4095 369.888 91.3701 369.769 91.2953 369.674C91.2206 369.578 91.1151 369.511 90.9967 369.485V368.566H85.8802V369.472H85.8097C85.7407 369.472 85.6725 369.486 85.6088 369.512C85.5451 369.539 85.4873 369.577 85.4386 369.626C85.3899 369.675 85.3513 369.733 85.325 369.797C85.2987 369.86 85.2852 369.929 85.2853 369.998C85.2853 370.01 85.2858 370.023 85.2868 370.036C85.759 375.398 84.312 380.755 81.2034 385.15C81.0235 385.406 80.9316 385.714 80.9415 386.027L81.501 403.33C81.5144 403.716 81.6764 404.081 81.9532 404.351C82.2299 404.62 82.6001 404.772 82.9863 404.775H94.5592C94.9498 404.772 95.3238 404.617 95.6014 404.342C95.879 404.067 96.0383 403.695 96.0454 403.304L96.261 386.504C96.2674 385.888 96.0856 385.284 95.7398 384.773Z" fill="#E6E6E6"/>
<path d="M94.0743 391.134H83.0319V396.654H94.0743V391.134Z" fill="white"/>
<path d="M113.439 365.315H108.595C108.424 365.315 108.261 365.383 108.14 365.504C108.02 365.624 107.952 365.787 107.952 365.958V368.084C107.952 368.254 108.02 368.417 108.14 368.538C108.261 368.658 108.424 368.726 108.595 368.726H109.397V371.911H112.636V368.726H113.439C113.61 368.726 113.773 368.658 113.893 368.538C114.014 368.417 114.081 368.254 114.081 368.084V365.958C114.081 365.787 114.014 365.624 113.893 365.504C113.773 365.383 113.61 365.315 113.439 365.315Z" fill="#E6E6E6"/>
<path d="M118.292 384.773C115.325 380.433 113.808 375.264 113.959 370.009C113.961 369.888 113.922 369.769 113.847 369.674C113.772 369.578 113.667 369.511 113.549 369.485V368.566H108.432V369.472H108.362C108.293 369.472 108.224 369.486 108.161 369.512C108.097 369.539 108.039 369.577 107.991 369.626C107.942 369.675 107.903 369.733 107.877 369.797C107.851 369.86 107.837 369.929 107.837 369.998C107.837 370.01 107.838 370.023 107.839 370.036C108.311 375.398 106.864 380.755 103.755 385.15C103.575 385.406 103.484 385.714 103.493 386.027L104.053 403.33C104.066 403.716 104.228 404.081 104.505 404.351C104.782 404.62 105.152 404.772 105.538 404.775H117.111C117.502 404.772 117.876 404.617 118.153 404.342C118.431 404.067 118.59 403.695 118.597 403.304L118.813 386.504C118.819 385.888 118.637 385.284 118.292 384.773Z" fill="#E6E6E6"/>
<path d="M116.626 391.134H105.584V396.654H116.626V391.134Z" fill="white"/>
<path d="M178.645 323.042H168.431C168.254 323.042 168.077 323.077 167.913 323.145C167.749 323.213 167.6 323.313 167.474 323.439C167.348 323.564 167.248 323.713 167.18 323.878C167.112 324.042 167.077 324.218 167.077 324.396V328.878C167.077 329.237 167.22 329.581 167.474 329.835C167.728 330.089 168.072 330.232 168.431 330.232H170.124V336.948H176.952V330.232H178.645C179.004 330.232 179.348 330.089 179.602 329.835C179.856 329.581 179.999 329.237 179.999 328.878V324.396C179.999 324.218 179.964 324.042 179.896 323.878C179.828 323.713 179.728 323.564 179.602 323.439C179.476 323.313 179.327 323.213 179.163 323.145C178.999 323.077 178.822 323.042 178.645 323.042Z" fill="#E6E6E6"/>
<path d="M188.874 364.062C182.619 354.911 179.422 344.016 179.74 332.937C179.745 332.681 179.662 332.431 179.505 332.23C179.347 332.028 179.125 331.888 178.875 331.832V329.895H168.089V331.805H167.94C167.795 331.805 167.651 331.834 167.516 331.89C167.382 331.945 167.26 332.027 167.158 332.13C167.055 332.233 166.974 332.355 166.918 332.489C166.863 332.624 166.834 332.768 166.835 332.913C166.835 332.94 166.836 332.967 166.838 332.993C167.687 344.837 164.818 355.458 158.229 364.857C157.85 365.397 157.656 366.045 157.677 366.705L158.857 403.182C158.885 403.996 159.226 404.767 159.81 405.335C160.393 405.903 161.174 406.224 161.988 406.23H186.385C187.209 406.223 187.997 405.895 188.583 405.316C189.168 404.737 189.504 403.952 189.519 403.129L189.973 367.712C189.987 366.412 189.603 365.139 188.874 364.062Z" fill="#E6E6E6"/>
<path d="M185.012 376.179H163.776C163.462 376.179 163.151 376.247 162.865 376.378C162.58 376.509 162.326 376.701 162.121 376.939C161.917 377.178 161.766 377.458 161.68 377.76C161.593 378.062 161.573 378.38 161.621 378.69L164.83 399.546H183.257L187.155 378.761C187.214 378.446 187.203 378.122 187.123 377.812C187.042 377.502 186.894 377.213 186.69 376.967C186.485 376.72 186.229 376.522 185.939 376.386C185.649 376.25 185.333 376.179 185.012 376.179Z" fill="white"/>
<path d="M184.22 189.447H123.339C127.596 166.438 126.617 138.655 123.339 108.776H184.22C181.03 138.655 180.077 166.438 184.22 189.447Z" fill="#E6E6E6"/>
<path d="M154.147 161.579C162.249 161.579 168.817 155.012 168.817 146.911C168.817 138.811 162.249 132.244 154.147 132.244C146.045 132.244 139.477 138.811 139.477 146.911C139.477 155.012 146.045 161.579 154.147 161.579Z" fill="white"/>
<path d="M128.474 296.52H67.593C71.8494 273.511 70.8702 245.728 67.593 215.848H128.474C125.284 245.728 124.331 273.511 128.474 296.52Z" fill="#E6E6E6"/>
<path d="M98.4003 268.651C106.502 268.651 113.07 262.085 113.07 253.984C113.07 245.883 106.502 239.316 98.4003 239.316C90.2982 239.316 83.7302 245.883 83.7302 253.984C83.7302 262.085 90.2982 268.651 98.4003 268.651Z" fill="white"/>
<path d="M218.695 194.58H157.814C162.071 171.572 161.091 143.788 157.814 113.909H218.695C215.505 143.789 214.552 171.572 218.695 194.58Z" fill="#E6E6E6"/>
<path d="M188.621 166.712C196.723 166.712 203.292 160.145 203.292 152.045C203.292 143.944 196.723 137.377 188.621 137.377C180.519 137.377 173.951 143.944 173.951 152.045C173.951 160.145 180.519 166.712 188.621 166.712Z" fill="white"/>
<path d="M218.695 190.914H157.814C162.071 167.905 161.091 140.122 157.814 110.242H218.695C215.505 140.122 214.552 167.905 218.695 190.914Z" fill="#E6E6E6"/>
<path d="M188.621 163.045C196.723 163.045 203.292 156.479 203.292 148.378C203.292 140.277 196.723 133.71 188.621 133.71C180.519 133.71 173.951 140.277 173.951 148.378C173.951 156.479 180.519 163.045 188.621 163.045Z" fill="white"/>
<path d="M218.695 194.58H157.814C162.071 171.572 161.091 143.788 157.814 113.909H218.695C215.505 143.789 214.552 171.572 218.695 194.58Z" fill="#E6E6E6"/>
<path d="M188.621 166.712C196.723 166.712 203.292 160.145 203.292 152.045C203.292 143.944 196.723 137.377 188.621 137.377C180.519 137.377 173.951 143.944 173.951 152.045C173.951 160.145 180.519 166.712 188.621 166.712Z" fill="white"/>
<path d="M232.632 185.047H33.1183V207.048H232.632V185.047Z" fill="#E6E6E6"/>
<path d="M232.632 294.319H33.1183V316.321H232.632V294.319Z" fill="#E6E6E6"/>
<path d="M232.632 403.592H33.1183V425.593H232.632V403.592Z" fill="#E6E6E6"/>
<path d="M579.694 492.85L529.989 457.701C546.753 441.373 562 418.125 576.581 391.839L626.286 426.988C606.424 449.541 589.6 471.673 579.694 492.85Z" fill="#F9A826"/>
<path d="M579.707 455.427C587.81 455.427 594.378 448.86 594.378 440.76C594.378 432.659 587.81 426.092 579.707 426.092C571.605 426.092 565.037 432.659 565.037 440.76C565.037 448.86 571.605 455.427 579.707 455.427Z" fill="white"/>
<path d="M339.923 332.455H334.467C334.275 332.455 334.091 332.531 333.955 332.667C333.82 332.802 333.743 332.986 333.743 333.178V335.572C333.743 335.667 333.762 335.762 333.798 335.849C333.835 335.937 333.888 336.017 333.955 336.084C334.022 336.151 334.102 336.204 334.19 336.241C334.278 336.277 334.372 336.296 334.467 336.296H335.371V339.883H339.019V336.296H339.923C340.115 336.296 340.299 336.22 340.434 336.084C340.57 335.948 340.646 335.764 340.646 335.572V333.178C340.646 332.986 340.57 332.802 340.434 332.667C340.299 332.531 340.115 332.455 339.923 332.455Z" fill="#E6E6E6"/>
<path d="M345.388 354.368C342.046 349.48 340.338 343.659 340.508 337.741C340.511 337.604 340.467 337.471 340.382 337.363C340.298 337.255 340.179 337.18 340.046 337.15V336.116H334.284V337.136H334.204C334.127 337.136 334.05 337.151 333.978 337.181C333.906 337.211 333.841 337.255 333.786 337.31C333.732 337.365 333.688 337.43 333.659 337.502C333.629 337.573 333.614 337.65 333.614 337.728C333.614 337.742 333.614 337.757 333.615 337.771C334.147 343.81 332.518 349.842 329.017 354.793C328.814 355.081 328.711 355.428 328.722 355.78L329.352 375.267C329.367 375.702 329.549 376.114 329.861 376.417C330.173 376.72 330.59 376.892 331.025 376.895H344.058C344.498 376.891 344.919 376.716 345.232 376.407C345.545 376.097 345.724 375.678 345.732 375.238L345.975 356.318C345.982 355.624 345.777 354.944 345.388 354.368Z" fill="#F9A826"/>
<path opacity="0.2" d="M338.785 333.235C338.785 333.649 338.621 334.046 338.328 334.338C338.036 334.631 337.639 334.795 337.225 334.795C336.811 334.795 336.414 334.631 336.121 334.338C335.829 334.046 335.664 333.649 335.664 333.235" fill="black"/>
<path d="M342.849 358.123H331.847V365.457H342.849V358.123Z" fill="white"/>
<path d="M512.582 408.582H502.369C502.01 408.582 501.666 408.724 501.412 408.978C501.158 409.232 501.015 409.577 501.015 409.936V414.418C501.015 414.777 501.158 415.121 501.412 415.375C501.666 415.629 502.01 415.772 502.369 415.772H504.062V422.487H510.89V415.772H512.582C512.941 415.772 513.286 415.629 513.54 415.375C513.794 415.121 513.936 414.777 513.936 414.418V409.936C513.936 409.577 513.794 409.232 513.54 408.978C513.286 408.724 512.941 408.582 512.582 408.582Z" fill="#E6E6E6"/>
<path d="M522.812 449.602C516.557 440.451 513.36 429.555 513.677 418.476C513.683 418.221 513.6 417.971 513.442 417.769C513.285 417.568 513.062 417.427 512.813 417.371V415.435H502.026V417.344H501.878C501.732 417.345 501.588 417.373 501.454 417.429C501.32 417.485 501.198 417.567 501.095 417.669C500.993 417.772 500.911 417.894 500.856 418.029C500.801 418.163 500.772 418.307 500.772 418.452C500.772 418.479 500.773 418.506 500.775 418.533C501.625 430.377 498.756 440.998 492.167 450.396C491.788 450.936 491.594 451.585 491.615 452.244L492.794 488.722C492.823 489.536 493.164 490.307 493.748 490.875C494.331 491.443 495.111 491.763 495.926 491.77H520.323C521.147 491.763 521.935 491.435 522.52 490.856C523.105 490.276 523.441 489.491 523.456 488.668L523.911 453.252C523.924 451.952 523.541 450.678 522.812 449.602Z" fill="#F9A826"/>
<path opacity="0.2" d="M510.453 410.042C510.453 410.817 510.146 411.56 509.598 412.108C509.05 412.655 508.307 412.963 507.532 412.963C506.757 412.963 506.014 412.655 505.466 412.108C504.918 411.56 504.611 410.817 504.611 410.042" fill="black"/>
<path d="M518.95 461.719H497.714C497.399 461.719 497.089 461.787 496.803 461.918C496.517 462.049 496.264 462.241 496.059 462.479C495.854 462.718 495.704 462.998 495.617 463.3C495.531 463.602 495.511 463.919 495.559 464.23L498.768 485.086H517.195L521.093 464.3C521.152 463.986 521.141 463.662 521.06 463.352C520.98 463.042 520.832 462.753 520.628 462.507C520.423 462.26 520.167 462.062 519.877 461.925C519.587 461.789 519.27 461.719 518.95 461.719Z" fill="white"/>
<path d="M483.442 492.793H422.561C426.818 469.784 425.838 442.001 422.561 412.122H483.442C480.252 442.001 479.299 469.784 483.442 492.793Z" fill="#F9A826"/>
<path d="M453.369 464.924C461.471 464.924 468.039 458.357 468.039 450.257C468.039 442.156 461.471 435.589 453.369 435.589C445.267 435.589 438.698 442.156 438.698 450.257C438.698 458.357 445.267 464.924 453.369 464.924Z" fill="white"/>
<path d="M234.425 238.909L248.092 237.667L256.789 216.549L241.258 207.853L234.425 238.909Z" fill="#FFB8B8"/>
<path d="M359.854 296.885C360.309 295.751 360.487 294.526 360.375 293.311C360.263 292.095 359.864 290.923 359.21 289.892C358.557 288.861 357.667 288 356.615 287.38C355.563 286.76 354.379 286.399 353.16 286.326L331.94 285.061L328.815 295.449L350.661 301.447C352.486 301.948 354.432 301.76 356.128 300.919C357.823 300.077 359.15 298.641 359.854 296.885Z" fill="#FFB8B8"/>
<path d="M337.069 301.622L336.835 282.129L289.7 274.609L253.387 232.97C251.498 230.804 248.887 229.396 246.039 229.006C243.191 228.617 240.298 229.273 237.896 230.852C236.442 231.809 235.216 233.073 234.304 234.555C233.392 236.038 232.817 237.703 232.62 239.432C232.422 241.161 232.607 242.912 233.161 244.562C233.715 246.212 234.625 247.72 235.826 248.979L265.783 285.84L337.069 301.622Z" fill="#FFE5B4"/>
<path d="M223.863 520.902H236.288L267.106 381.591L299.034 424.627L317.671 517.797H329.474L326.989 417.795L285.366 310.96H244.364C233.16 331.235 224.37 352.134 234.425 373.695L223.863 520.902Z" fill="#2F2E41"/>
<path d="M310.054 529.364C309.917 529.804 309.875 530.267 309.93 530.724C309.986 531.181 310.139 531.621 310.378 532.015C310.617 532.408 310.938 532.746 311.318 533.007C311.698 533.267 312.129 533.443 312.583 533.523L342.986 538.918C344.188 539.137 345.428 538.91 346.473 538.279C347.519 537.647 348.297 536.655 348.661 535.49C349.015 534.376 348.966 533.173 348.521 532.092C348.077 531.011 347.265 530.122 346.23 529.579C339.545 526.148 333.791 521.146 329.463 515.005C326.121 518.116 322.386 517.823 318.42 515.53L314.214 516.056L310.054 529.364Z" fill="#2F2E41"/>
<path d="M218.111 529.364C217.973 529.804 217.931 530.267 217.987 530.724C218.043 531.181 218.195 531.621 218.435 532.015C218.674 532.408 218.994 532.746 219.374 533.007C219.754 533.267 220.185 533.443 220.639 533.523L251.043 538.918C252.244 539.137 253.484 538.91 254.53 538.279C255.575 537.647 256.353 536.655 256.717 535.49C257.072 534.376 257.022 533.173 256.578 532.092C256.133 531.011 255.322 530.122 254.286 529.579C247.601 526.148 241.848 521.146 237.519 515.005C234.177 518.116 230.443 517.823 226.477 515.53L222.27 516.056L218.111 529.364Z" fill="#2F2E41"/>
<path d="M257.1 224.313C266.707 224.313 274.495 216.526 274.495 206.921C274.495 197.316 266.707 189.53 257.1 189.53C247.493 189.53 239.705 197.316 239.705 206.921C239.705 216.526 247.493 224.313 257.1 224.313Z" fill="#FFB8B8"/>
<path d="M241.569 315.619L286.919 314.377L273.601 272.467C281.878 259.201 273.548 245.948 261.759 232.698L252.44 226.487L237.531 225.244C231.075 232.151 227.543 241.286 227.674 250.738C227.969 270.978 231.554 293.011 241.569 315.619Z" fill="#FFE5B4"/>
<path d="M345.764 343.829C346.627 342.966 347.274 341.91 347.649 340.748C348.024 339.586 348.118 338.352 347.923 337.147C347.728 335.942 347.249 334.8 346.526 333.816C345.802 332.833 344.856 332.035 343.764 331.489L324.752 321.979L317.792 330.301L335.516 344.408C336.997 345.586 338.86 346.179 340.75 346.072C342.64 345.965 344.425 345.167 345.764 343.829Z" fill="#FFB8B8"/>
<path d="M322.951 339.222L330.406 321.209L290.03 295.756L273.029 243.192C272.144 240.458 270.298 238.136 267.833 236.658C265.367 235.179 262.449 234.644 259.62 235.152C257.907 235.46 256.282 236.14 254.86 237.144C253.439 238.148 252.255 239.453 251.393 240.964C250.532 242.476 250.012 244.159 249.872 245.894C249.733 247.629 249.975 249.373 250.584 251.003L263.623 296.674L322.951 339.222Z" fill="#FFE5B4"/>
<path d="M228.523 200.089C228.523 206.856 232.918 217.336 238.463 221.828C242.193 224.851 247.123 224.724 249.024 220.586C250.974 216.342 257.695 206.365 269.525 200.089C285.295 191.722 263.932 177.409 249.024 179.591C237.821 181.232 228.523 188.768 228.523 200.089Z" fill="#2F2E41"/>
<path d="M239.084 190.772C245.946 190.772 251.509 185.21 251.509 178.349C251.509 171.488 245.946 165.927 239.084 165.927C232.222 165.927 226.659 171.488 226.659 178.349C226.659 185.21 232.222 190.772 239.084 190.772Z" fill="#2F2E41"/>
<path d="M253.372 174.001C253.371 170.869 252.186 167.854 250.055 165.559C247.923 163.264 245.003 161.859 241.879 161.626C242.188 161.603 242.497 161.579 242.811 161.579C246.107 161.579 249.267 162.887 251.597 165.217C253.927 167.547 255.236 170.707 255.236 174.001C255.236 177.296 253.927 180.456 251.597 182.785C249.267 185.115 246.107 186.424 242.811 186.424C242.497 186.424 242.188 186.4 241.879 186.377C245.003 186.144 247.923 184.739 250.055 182.444C252.186 180.149 253.371 177.133 253.372 174.001Z" fill="#2F2E41"/>
<path d="M257.41 213.133C258.954 213.133 260.206 211.464 260.206 209.406C260.206 207.347 258.954 205.679 257.41 205.679C255.866 205.679 254.615 207.347 254.615 209.406C254.615 211.464 255.866 213.133 257.41 213.133Z" fill="#FFB8B8"/>
<path d="M609.445 498.121H416.029L375.071 304.536H340.117V295.85H382.113L423.071 489.434H609.445V498.121Z" fill="#3F3D56"/>
<path d="M444.373 533.486C454.655 533.486 462.99 525.153 462.99 514.873C462.99 504.592 454.655 496.259 444.373 496.259C434.091 496.259 425.756 504.592 425.756 514.873C425.756 525.153 434.091 533.486 444.373 533.486Z" fill="#3F3D56"/>
<path d="M583.381 533.486C593.663 533.486 601.998 525.153 601.998 514.873C601.998 504.592 593.663 496.259 583.381 496.259C573.099 496.259 564.764 504.592 564.764 514.873C564.764 525.153 573.099 533.486 583.381 533.486Z" fill="#3F3D56"/>
<path d="M605.918 494.03H417.736L384.533 329.975H637.077C638.366 329.975 639.639 330.255 640.81 330.794C641.98 331.333 643.02 332.119 643.858 333.098C644.695 334.077 645.311 335.226 645.662 336.466C646.013 337.706 646.091 339.007 645.892 340.28L614.731 486.495C614.41 488.598 613.343 490.517 611.725 491.9C610.108 493.283 608.047 494.039 605.918 494.03ZM419.779 491.548H605.918C607.455 491.555 608.942 491.009 610.109 490.011C611.277 489.012 612.046 487.628 612.278 486.109L643.438 339.894C643.583 338.976 643.527 338.036 643.273 337.142C643.02 336.247 642.576 335.418 641.971 334.711C641.367 334.004 640.616 333.437 639.772 333.047C638.927 332.658 638.008 332.457 637.077 332.457H387.546L419.779 491.548Z" fill="#3F3D56"/>
<path d="M454.319 493.505L432.575 331.418L435.024 331.014L456.768 493.1L454.319 493.505Z" fill="#3F3D56"/>
<path d="M575.225 492.26L572.774 491.863L593.883 331.018L596.334 331.415L575.225 492.26Z" fill="#3F3D56"/>
<path d="M517.62 331.216H515.138V493.303H517.62V331.216Z" fill="#3F3D56"/>
<path d="M397.213 374.649L397.207 377.13L637.489 377.712L637.495 375.23L397.213 374.649Z" fill="#3F3D56"/>
<path d="M620.539 451.315L409.446 452.758L409.463 455.24L620.556 453.797L620.539 451.315Z" fill="#3F3D56"/>
<path d="M343.84 306.398C351.381 306.398 357.493 303.064 357.493 298.952C357.493 294.84 351.381 291.507 343.84 291.507C336.3 291.507 330.188 294.84 330.188 298.952C330.188 303.064 336.3 306.398 343.84 306.398Z" fill="#3F3D56"/>
</g>
<defs>
<clipPath id="clip0_6_498">
<rect width="646" height="539" fill="white"/>
</clipPath>
</defs>
</svg>
