<svg width="521" height="500" viewBox="0 0 521 500" fill="none" xmlns="http://www.w3.org/2000/svg">
<g clip-path="url(#clip0_6_362)">
<path d="M469.184 484.4C471.157 484.524 472.247 482.072 470.755 480.644L470.606 480.053C470.626 480.006 470.645 479.959 470.665 479.911C472.66 475.153 479.422 475.186 481.4 479.951C483.156 484.181 485.392 488.417 485.942 492.889C486.189 494.863 486.078 496.874 485.64 498.811C489.754 489.823 491.919 480.008 491.919 470.138C491.919 467.658 491.783 465.178 491.506 462.705C491.277 460.681 490.963 458.67 490.556 456.678C488.354 445.907 483.586 435.648 476.709 427.079C473.402 425.272 470.645 422.446 468.98 419.059C468.382 417.838 467.913 416.524 467.691 415.185C468.067 415.235 469.109 409.504 468.826 409.152C469.35 408.356 470.289 407.961 470.861 407.184C473.709 403.322 477.633 403.997 479.682 409.245C484.057 411.454 484.1 415.117 481.415 418.64C479.707 420.881 479.472 423.914 477.973 426.314C478.127 426.511 478.288 426.703 478.442 426.9C481.269 430.528 483.715 434.426 485.777 438.522C485.194 433.97 486.055 428.486 487.521 424.951C489.191 420.923 492.32 417.53 495.075 414.048C498.385 409.866 505.173 411.691 505.756 416.993C505.762 417.044 505.767 417.096 505.772 417.147C505.363 417.378 504.962 417.623 504.57 417.882C502.336 419.36 503.108 422.824 505.756 423.233L505.816 423.242C505.668 424.716 505.415 426.178 505.045 427.616C508.58 441.289 500.948 446.269 490.05 446.493C489.81 446.616 489.575 446.739 489.334 446.857C490.439 449.966 491.321 453.155 491.974 456.388C492.56 459.244 492.968 462.131 493.196 465.03C493.48 468.688 493.455 472.365 493.146 476.017L493.165 475.888C493.948 471.865 496.132 468.109 499.302 465.505C504.025 461.625 510.698 460.196 515.793 457.077C518.246 455.576 521.389 457.516 520.961 460.36L520.94 460.496C520.181 460.805 519.441 461.162 518.725 461.563C518.316 461.794 517.915 462.04 517.523 462.299C515.289 463.776 516.061 467.24 518.709 467.649L518.769 467.658C518.812 467.664 518.849 467.671 518.892 467.677C517.59 470.767 515.777 473.636 513.507 476.11C511.297 488.046 501.803 489.178 491.648 485.702H491.641C490.531 490.539 488.909 495.264 486.824 499.767H469.615C469.554 499.576 469.498 499.379 469.442 499.188C471.034 499.286 472.638 499.194 474.204 498.904C472.927 497.337 471.651 495.758 470.374 494.191C470.343 494.16 470.318 494.129 470.294 494.098C469.646 493.296 468.992 492.5 468.345 491.699L468.344 491.698C468.304 489.236 468.599 486.782 469.183 484.401L469.184 484.4V484.4Z" fill="#F2F2F2"/>
<path d="M152.56 498.863C152.56 499.494 153.066 500 153.697 500H519.73C520.36 500 520.866 499.494 520.866 498.863C520.866 498.233 520.36 497.727 519.73 497.727H153.697C153.066 497.727 152.56 498.233 152.56 498.863Z" fill="#CCCCCC"/>
<path d="M208.102 499.516H39.6208C19.0775 499.516 2.36401 482.8 2.36401 462.253V100.125C2.36401 79.5786 19.0775 62.8628 39.6208 62.8628H208.102C228.645 62.8628 245.359 79.5786 245.359 100.125V462.253C245.359 482.8 228.645 499.516 208.102 499.516Z" fill="#3F3D56"/>
<path d="M245.359 196.066C244.49 196.066 243.783 196.773 243.783 197.642V248.086C243.783 248.955 244.49 249.662 245.359 249.662C246.228 249.662 246.935 248.955 246.935 248.086V197.642C246.935 196.773 246.228 196.066 245.359 196.066Z" fill="#3F3D56"/>
<path d="M241.813 100.125V462.247C241.813 480.131 227.896 494.76 210.298 495.895H210.29C210.03 495.91 209.77 495.926 209.502 495.934C209.037 495.958 208.572 495.966 208.099 495.966C208.099 495.966 206.365 495.84 203.197 495.603C199.998 495.367 195.34 495.012 189.532 494.547C187.791 494.413 185.954 494.263 184.016 494.106C180.154 493.79 175.914 493.443 171.367 493.049C169.555 492.9 167.679 492.734 165.764 492.569C155.976 491.725 145.014 490.74 133.453 489.621C131.499 489.439 129.528 489.25 127.542 489.053C127.022 488.998 126.494 488.951 125.966 488.896C117.723 488.084 5.91077 466.472 5.91077 462.247V100.125C5.91077 81.5004 21.0024 66.4067 39.6245 66.4067H59.7519C62.9672 66.4067 65.5521 68.9131 65.8279 72.121C65.8515 72.3338 65.8752 72.5466 65.9146 72.7594C66.4978 75.9831 69.453 78.2294 72.7314 78.2294H174.992C178.271 78.2294 181.226 75.9831 181.809 72.7594C181.848 72.5466 181.872 72.3338 181.896 72.121C182.172 68.9131 184.756 66.4067 187.972 66.4067H208.099C226.721 66.4067 241.813 81.5004 241.813 100.125Z" fill="white"/>
<path d="M1.57614 158.233C0.706873 158.233 0 158.94 0 159.809V172.42C0 173.29 0.706883 173.997 1.57614 173.997C2.4454 173.997 3.15228 173.29 3.15228 172.42V159.809C3.15228 158.94 2.4454 158.233 1.57614 158.233Z" fill="#3F3D56"/>
<path d="M1.57614 196.066C0.706873 196.066 0 196.773 0 197.642V222.076C0 222.945 0.706883 223.652 1.57614 223.652C2.4454 223.652 3.15228 222.945 3.15228 222.076V197.642C3.15228 196.773 2.4454 196.066 1.57614 196.066Z" fill="#3F3D56"/>
<path d="M1.57614 230.746C0.706873 230.746 0 231.453 0 232.322V256.756C0 257.625 0.706883 258.332 1.57614 258.332C2.4454 258.332 3.15228 257.625 3.15228 256.756V232.322C3.15228 231.453 2.4454 230.746 1.57614 230.746Z" fill="#3F3D56"/>
<path d="M59.2032 71.927H29.0609C28.8973 71.927 28.7646 72.0596 28.7646 72.2233V75.5716C28.7646 75.7353 28.8973 75.8679 29.0609 75.8679H59.2032C59.3668 75.8679 59.4995 75.7353 59.4995 75.5716V72.2233C59.4995 72.0596 59.3668 71.927 59.2032 71.927Z" fill="#E6E6E6"/>
<path d="M192.952 75.8679C194.693 75.8679 196.104 74.4564 196.104 72.7152C196.104 70.974 194.693 69.5624 192.952 69.5624C191.211 69.5624 189.8 70.974 189.8 72.7152C189.8 74.4564 191.211 75.8679 192.952 75.8679Z" fill="#E6E6E6"/>
<path d="M201.621 75.8679C203.362 75.8679 204.773 74.4564 204.773 72.7152C204.773 70.974 203.362 69.5624 201.621 69.5624C199.88 69.5624 198.469 70.974 198.469 72.7152C198.469 74.4564 199.88 75.8679 201.621 75.8679Z" fill="#E6E6E6"/>
<path d="M210.29 75.8679C212.031 75.8679 213.442 74.4564 213.442 72.7152C213.442 70.974 212.031 69.5624 210.29 69.5624C208.549 69.5624 207.137 70.974 207.137 72.7152C207.137 74.4564 208.549 75.8679 210.29 75.8679Z" fill="#E6E6E6"/>
<path d="M190.316 285.115H56.6192C54.513 285.115 52.7993 283.401 52.7993 281.295C52.7993 279.188 54.513 277.474 56.6192 277.474H190.316C192.422 277.474 194.136 279.188 194.136 281.295C194.136 283.401 192.422 285.115 190.316 285.115Z" fill="#E6E6E6"/>
<path d="M123.947 433.157C154.537 433.157 179.336 408.355 179.336 377.761C179.336 347.166 154.537 322.364 123.947 322.364C93.3568 322.364 68.5585 347.166 68.5585 377.761C68.5585 408.355 93.3568 433.157 123.947 433.157Z" fill="#F9A826"/>
<path d="M132.75 359.673C128.075 359.865 122.791 360.186 119.336 363.773C116.334 366.89 115.676 371.515 118.72 374.842C121.772 378.178 126.517 378.63 130.035 381.232C134.166 384.288 133.561 390.334 129.564 393.23C124.85 396.645 118.764 395.053 114.454 391.803C113.35 390.971 112.278 392.836 113.37 393.659C117.231 396.57 122.269 398.191 127.043 396.798C131.351 395.541 134.691 392.027 135.03 387.457C135.192 385.276 134.572 383.062 133.216 381.34C131.785 379.522 129.723 378.404 127.639 377.494C124.05 375.927 117.872 373.9 118.915 368.798C120.18 362.615 127.705 362.029 132.75 361.822C134.128 361.765 134.135 359.616 132.75 359.673L132.75 359.673Z" fill="white"/>
<path d="M124.078 356.748L123.872 403.924C123.866 405.307 126.015 405.309 126.021 403.924L126.227 356.748C126.233 355.365 124.084 355.363 124.078 356.748Z" fill="white"/>
<path d="M417.407 0H144.322C134.304 0 126.158 8.14705 126.158 18.1661V205.329C126.158 215.348 134.304 223.495 144.322 223.495H417.407C427.424 223.495 435.57 215.348 435.57 205.329V18.1661C435.57 8.14705 427.424 0 417.407 0Z" fill="white"/>
<path d="M279.608 111.285C296.486 111.285 310.167 97.6015 310.167 80.7217C310.167 63.842 296.486 50.1583 279.608 50.1583C262.731 50.1583 249.049 63.842 249.049 80.7217C249.049 97.6015 262.731 111.285 279.608 111.285Z" fill="#F9A826"/>
<path d="M285.405 67.0829C281.623 67.2388 277.364 67.4786 274.503 70.2941C272.132 72.6263 271.304 76.2569 273.482 79.0028C275.775 81.8939 279.588 82.4425 282.582 84.2901C284.443 85.4383 285.676 87.1779 285.716 89.4135C285.753 91.5066 284.787 93.462 283.173 94.7738C279.211 97.9922 273.809 96.66 270.062 93.8452C269.324 93.2914 268.609 94.5347 269.339 95.0823C272.442 97.4135 276.439 98.7674 280.301 97.7644C283.856 96.8411 286.719 94.0442 287.104 90.3068C287.51 86.3677 284.924 83.6855 281.571 82.1468C278.506 80.7403 273.13 79.2417 273.637 74.8722C274.281 69.3167 281.081 68.6937 285.405 68.5155C286.324 68.4776 286.329 67.0448 285.405 67.0828V67.0829Z" fill="white"/>
<path d="M278.832 64.4849L278.66 103.795C278.656 104.717 280.088 104.719 280.092 103.795L280.264 64.4849C280.268 63.5629 278.836 63.5617 278.832 64.4849Z" fill="white"/>
<path d="M417.407 0H144.322C134.304 0 126.158 8.14705 126.158 18.1661V205.329C126.158 215.348 134.304 223.495 144.322 223.495H417.407C427.424 223.495 435.57 215.348 435.57 205.329V18.1661C435.57 8.14705 427.424 0 417.407 0ZM433.66 205.329C433.66 214.298 426.374 221.585 417.407 221.585H144.322C135.354 221.585 128.068 214.298 128.068 205.329V18.1661C128.068 9.19771 135.354 1.91022 144.322 1.91022H417.407C426.374 1.91022 433.66 9.1977 433.66 18.1661V205.329Z" fill="#3F3D56"/>
<path d="M249.378 18.4813H222.582C221.235 18.4813 220.137 19.5797 220.137 20.9264C220.137 22.2826 221.235 23.381 222.582 23.381H249.378C250.725 23.381 251.823 22.2826 251.823 20.9264C251.823 19.5797 250.725 18.4813 249.378 18.4813Z" fill="#E6E6E6"/>
<path d="M294.262 18.4813H267.466C266.119 18.4813 265.021 19.5797 265.021 20.9264C265.021 22.2826 266.119 23.381 267.466 23.381H294.262C295.609 23.381 296.707 22.2826 296.707 20.9264C296.707 19.5797 295.609 18.4813 294.262 18.4813Z" fill="#E6E6E6"/>
<path d="M339.146 18.4813H312.35C311.003 18.4813 309.905 19.5797 309.905 20.9264C309.905 22.2826 311.003 23.381 312.35 23.381H339.146C340.493 23.381 341.591 22.2826 341.591 20.9264C341.591 19.5797 340.493 18.4813 339.146 18.4813Z" fill="#E6E6E6"/>
<path d="M383.343 128.477H178.386C169.858 128.477 162.924 135.411 162.924 143.94V157.904C162.924 166.433 169.858 173.367 178.386 173.367H383.343C391.87 173.367 398.804 166.433 398.804 157.904V143.94C398.804 135.411 391.87 128.477 383.343 128.477Z" fill="#F9A826"/>
<path d="M69.8845 201.998L62.0251 198.274C65.2487 202.774 68.0264 209.801 69.5135 215.392C72.0313 210.184 76.0901 203.81 80.1077 200.003L71.8012 202.141C76.9197 177.052 96.1714 159.041 118.217 159.041V157.13C95.1898 157.13 75.1106 175.896 69.8845 201.998Z" fill="#3F3D56"/>
<path d="M106.058 240.225H56.3994C54.2931 240.225 52.5795 238.511 52.5795 236.404C52.5795 234.298 54.2931 232.584 56.3994 232.584H106.058C108.164 232.584 109.878 234.298 109.878 236.404C109.878 238.511 108.164 240.225 106.058 240.225Z" fill="#E6E6E6"/>
<path d="M436.404 227.782L435.903 266.788L426.199 301.559L418.442 298.665L421.886 266.793L421.433 223.663L436.404 227.782Z" fill="#FFB6B6"/>
<path d="M426.166 307.166C427.076 302.166 425.408 297.674 422.439 297.134C419.471 296.593 416.327 300.208 415.417 305.208C414.507 310.208 416.175 314.699 419.143 315.24C422.111 315.78 425.256 312.165 426.166 307.166Z" fill="#FFB6B6"/>
<path d="M424.628 181.338C424.628 181.338 441.252 181.567 441.238 190.399C441.23 195.385 440.159 240.66 437.179 268.164C434.881 289.373 430.494 294.907 430.494 294.907L419.99 271.029L424.628 181.338Z" fill="#E6E6E6"/>
<path d="M424.201 261.03H368.06C372.766 250.528 375.659 240.527 371.136 232.571L424.201 229.494C421.549 240.234 421.225 250.774 424.201 261.03Z" fill="#FFB6B6"/>
<path d="M417.28 167.962L394.977 166.423L385.748 177.961L381.07 178.811C374.057 180.087 369.063 186.346 369.376 193.468L371.196 234.837L424.503 238.724L437.275 184.854L421.894 178.73L417.28 167.962V167.962Z" fill="#E6E6E6"/>
<path d="M281.27 180.441C282.852 181.864 283.982 183.528 284.578 185.141L300.509 197.751L294.287 205.156L278.798 191.567C277.131 191.144 275.358 190.196 273.776 188.772C270.161 185.52 268.908 181.018 270.978 178.718C273.047 176.417 277.655 177.188 281.27 180.441L281.27 180.441Z" fill="#FFB6B6"/>
<path d="M393.897 191.057V191.057L332.858 232.279L289.104 201.826L295.673 189.925L330.11 209.941L361.867 185.553C373.176 174.929 387.35 176.989 393.897 191.057H393.897Z" fill="#E6E6E6"/>
<path d="M404.806 162.969C413.944 162.969 421.351 155.56 421.351 146.42C421.351 137.281 413.944 129.872 404.806 129.872C395.667 129.872 388.26 137.281 388.26 146.42C388.26 155.56 395.667 162.969 404.806 162.969Z" fill="#FFB6B6"/>
<path d="M427.295 142.355V145.564L408.635 140.311L394.645 143.243C394.482 141.113 393.852 139.022 392.802 137.169C393.533 140.141 393.614 142.44 392.84 143.625L390.958 144.017C390.653 143.186 390.061 142.46 389.287 142.021C389.211 141.973 389.115 141.935 389.029 141.963C388.896 142.011 388.886 142.183 388.886 142.317C388.905 143.024 388.924 143.73 388.953 144.437L383.548 145.564V142.355C378.362 130.686 392.03 120.588 405.426 120.483C411.471 120.436 416.934 122.928 420.897 126.882C424.851 130.846 427.295 136.309 427.295 142.355Z" fill="#2F2E41"/>
<path d="M437.793 179.985L436.384 179.868C436.484 179.407 436.584 178.952 436.676 178.491C437.457 174.623 435.738 169.7 435.611 165.984C434.948 169.91 436.083 174.74 434.909 178.468C434.778 178.882 429.679 181.555 429.54 181.963C423.896 179.899 418.02 173.304 411.365 177.156C407.429 179.434 402.939 178.436 398.47 177.393C397.364 177.135 397.21 171.672 396.115 171.457C394.155 171.073 391.276 176.039 389.431 176.233L397.07 146.624C397.07 130.517 395.579 113.618 415.979 119.314C421.11 120.746 426.188 121.869 429.975 126.104C433.762 130.345 436.458 136.272 437.413 143.022C437.989 147.094 441.584 160.92 437.793 179.985Z" fill="#2F2E41"/>
<path d="M424.619 477.727L415.512 477.942L410.435 437.021L423.875 436.703L424.619 477.727Z" fill="#FFB7B7"/>
<path d="M393.373 496.73C393.373 498.268 394.465 499.516 395.812 499.516H413.889C413.889 499.516 415.668 492.364 422.921 489.286L423.422 499.516H432.747L431.617 483.067C431.617 483.067 434.112 474.267 428.931 469.769C423.75 465.27 427.946 465.896 427.946 465.896L425.908 455.716L411.817 457.373L411.713 473.354L404.875 489.217L394.844 494.172C393.951 494.614 393.374 495.618 393.374 496.73H393.373H393.373Z" fill="#2F2E41"/>
<path d="M396.912 471.058L388.157 473.577L372.864 435.284L385.783 431.566L396.912 471.058Z" fill="#FFB7B7"/>
<path d="M371.51 497.369C371.901 498.857 373.273 499.787 374.576 499.445L392.061 494.857C392.061 494.857 391.967 487.488 398.202 482.67L401.282 492.438L410.302 490.071L405.035 474.448C405.035 474.448 405.215 465.302 399.063 462.266C392.911 459.23 397.128 458.771 397.128 458.771L392.574 449.44L379.364 454.62L383.319 470.104L380.729 487.183L372.284 494.522C371.532 495.175 371.228 496.294 371.51 497.369L371.51 497.369L371.51 497.369Z" fill="#2F2E41"/>
<path d="M419.035 258.613L424.765 260.523C433.723 277.071 437.521 299.046 437.018 325.545L426.84 444.562H410.189L398.003 311.972L376.516 361.738L392.237 444.562L376.516 446.165L344.851 360.042L366.903 259.945L419.035 258.613Z" fill="#2F2E41"/>
</g>
<defs>
<clipPath id="clip0_6_362">
<rect width="521" height="500" fill="white"/>
</clipPath>
</defs>
</svg>
