<svg width="559" height="411" viewBox="0 0 559 411" fill="none" xmlns="http://www.w3.org/2000/svg">
<g clip-path="url(#clip0_4_66)">
<path d="M555.904 24.3683H3.09645C2.27549 24.3674 1.48842 24.0414 0.90792 23.4618C0.327417 22.8823 0.000897307 22.0964 0 21.2768V3.09153C0.000897307 2.27188 0.327417 1.48605 0.90792 0.90647C1.48842 0.326889 2.27549 0.000894042 3.09645 0H555.904C556.725 0.000895884 557.512 0.326899 558.092 0.90648C558.673 1.48606 558.999 2.27188 559 3.09153V21.2768C558.999 22.0965 558.673 22.8823 558.092 23.4619C557.512 24.0414 556.725 24.3674 555.904 24.3683Z" fill="#E4E4E4"/>
<path d="M17.97 15.6864C20.398 15.6864 22.3662 13.7213 22.3662 11.2972C22.3662 8.87306 20.398 6.90794 17.97 6.90794C15.5421 6.90794 13.5739 8.87306 13.5739 11.2972C13.5739 13.7213 15.5421 15.6864 17.97 15.6864Z" fill="#FFA500"/>
<path d="M34.6564 15.6864C37.0844 15.6864 39.0526 13.7213 39.0526 11.2972C39.0526 8.87306 37.0844 6.90794 34.6564 6.90794C32.2285 6.90794 30.2603 8.87306 30.2603 11.2972C30.2603 13.7213 32.2285 15.6864 34.6564 15.6864Z" fill="#FFA500"/>
<path d="M51.3437 15.6864C53.7716 15.6864 55.7399 13.7213 55.7399 11.2972C55.7399 8.87306 53.7716 6.90794 51.3437 6.90794C48.9157 6.90794 46.9475 8.87306 46.9475 11.2972C46.9475 13.7213 48.9157 15.6864 51.3437 15.6864Z" fill="#FFA500"/>
<path d="M539.554 8.27612H520.339C519.962 8.27529 519.601 8.12519 519.335 7.85878C519.069 7.59237 518.919 7.23138 518.919 6.85503C518.919 6.47868 519.069 6.11771 519.335 5.8513C519.601 5.58488 519.962 5.43479 520.339 5.43396H539.554C539.932 5.43369 540.294 5.58292 540.561 5.84888C540.828 6.11484 540.978 6.47577 540.979 6.85237C540.98 7.22898 540.83 7.59047 540.564 7.85742C540.298 8.12438 539.937 8.27497 539.56 8.27612H539.554Z" fill="#FFA500"/>
<path d="M539.554 13.6052H520.339C519.962 13.6043 519.601 13.4543 519.335 13.1878C519.069 12.9214 518.919 12.5605 518.919 12.1841C518.919 11.8078 519.069 11.4468 519.335 11.1804C519.601 10.9139 519.962 10.7638 520.339 10.763H539.554C539.932 10.7627 540.294 10.912 540.561 11.1779C540.828 11.4439 540.978 11.8048 540.979 12.1814C540.98 12.558 540.83 12.9195 540.564 13.1865C540.298 13.4534 539.937 13.604 539.56 13.6052H539.554Z" fill="#FFA500"/>
<path d="M539.554 18.9342H520.339C519.962 18.9342 519.6 18.7845 519.333 18.518C519.066 18.2515 518.916 17.8901 518.916 17.5132C518.916 17.1363 519.066 16.7748 519.333 16.5083C519.6 16.2418 519.962 16.0921 520.339 16.0921H539.554C539.932 16.0914 540.294 16.2404 540.562 16.5064C540.829 16.7724 540.98 17.1336 540.98 17.5105C540.981 17.8874 540.832 18.2491 540.565 18.5161C540.299 18.7831 539.937 18.9335 539.56 18.9342H539.554Z" fill="#FFA500"/>
<path d="M157.626 361.37C159.66 345.039 169.797 328.948 185.397 323.634C179.244 340.443 179.246 358.883 185.4 375.691C187.797 382.165 191.139 389.116 188.884 395.64C187.481 399.7 184.049 402.806 180.213 404.748C176.376 406.69 172.119 407.616 167.914 408.523L167.087 409.206C160.412 394.159 155.592 377.701 157.626 361.37Z" fill="#F0F0F0"/>
<path d="M185.551 323.943C176.467 334.105 170.821 346.867 169.415 360.416C169.06 363.328 169.167 366.277 169.733 369.155C170.374 371.941 171.751 374.504 173.72 376.579C175.517 378.551 177.584 380.36 178.87 382.733C179.51 383.957 179.884 385.303 179.967 386.682C180.049 388.061 179.839 389.442 179.35 390.734C178.214 393.985 175.977 396.635 173.698 399.151C171.168 401.944 168.496 404.805 167.421 408.508C167.291 408.956 166.601 408.728 166.731 408.28C168.602 401.838 174.866 398.179 177.853 392.376C179.247 389.669 179.832 386.525 178.525 383.667C177.382 381.168 175.253 379.301 173.416 377.32C171.465 375.324 170.033 372.882 169.246 370.206C168.536 367.366 168.315 364.426 168.593 361.512C169.113 354.942 170.665 348.494 173.192 342.405C176.037 335.439 180.054 329.011 185.071 323.399C185.381 323.051 185.86 323.598 185.551 323.943L185.551 323.943Z" fill="#FFA500"/>
<path d="M169.61 356.027C167.365 355.483 165.387 354.16 164.029 352.294C162.671 350.428 162.022 348.141 162.197 345.842C162.205 345.748 162.249 345.661 162.32 345.599C162.391 345.537 162.483 345.505 162.577 345.51C162.672 345.515 162.76 345.556 162.825 345.624C162.889 345.693 162.924 345.784 162.923 345.878C162.756 348.019 163.361 350.149 164.629 351.884C165.897 353.619 167.745 354.844 169.838 355.338C170.293 355.446 170.062 356.134 169.61 356.027Z" fill="#FFA500"/>
<path d="M172.677 375.699C176.731 373.282 179.724 369.429 181.059 364.906C181.191 364.458 181.881 364.686 181.749 365.134C180.351 369.837 177.228 373.841 173.004 376.347C172.601 376.586 172.276 375.937 172.677 375.699Z" fill="#FFA500"/>
<path d="M176.711 336.126C177.535 336.518 178.445 336.698 179.356 336.652C180.268 336.606 181.154 336.334 181.935 335.862C182.335 335.618 182.659 336.268 182.262 336.509C181.397 337.028 180.418 337.326 179.41 337.38C178.403 337.433 177.398 337.239 176.483 336.815C176.393 336.782 176.32 336.717 176.277 336.632C176.234 336.547 176.225 336.448 176.252 336.357C176.283 336.266 176.348 336.191 176.434 336.148C176.52 336.104 176.619 336.097 176.711 336.126Z" fill="#FFA500"/>
<path d="M232.946 352.803C232.701 352.962 232.456 353.121 232.21 353.286C228.925 355.443 225.821 357.863 222.928 360.522C222.701 360.724 222.474 360.932 222.253 361.14C215.352 367.62 209.716 375.323 205.632 383.857C204.01 387.255 202.649 390.77 201.561 394.374C200.058 399.351 198.826 404.866 195.852 408.937C195.547 409.365 195.215 409.774 194.859 410.161H167.986C167.925 410.131 167.863 410.106 167.802 410.075L166.729 410.124C166.772 409.935 166.821 409.739 166.864 409.549C166.889 409.439 166.919 409.329 166.944 409.218C166.962 409.145 166.981 409.071 166.993 409.004C166.999 408.98 167.005 408.955 167.011 408.937C167.023 408.87 167.042 408.808 167.054 408.747C167.324 407.651 167.602 406.556 167.888 405.46C167.888 405.454 167.888 405.454 167.894 405.448C169.994 397.077 173.081 388.985 177.091 381.341C177.214 381.115 177.336 380.882 177.471 380.655C179.328 377.272 181.458 374.045 183.841 371.008C185.152 369.349 186.545 367.758 188.017 366.239C191.827 362.324 196.229 359.031 201.064 356.482C210.702 351.401 221.861 349.454 232.162 352.558C232.425 352.638 232.683 352.717 232.946 352.803Z" fill="#F0F0F0"/>
<path d="M232.886 353.143C219.504 355.797 207.3 362.593 198.007 372.566C195.968 374.677 194.275 377.096 192.991 379.734C191.823 382.344 191.377 385.218 191.698 388.059C191.944 390.713 192.504 393.4 192.099 396.068C191.872 397.431 191.359 398.73 190.593 399.881C189.828 401.031 188.827 402.007 187.657 402.745C184.79 404.658 181.405 405.429 178.069 406.068C174.365 406.777 170.506 407.455 167.415 409.766C167.04 410.045 166.627 409.449 167.001 409.169C172.38 405.15 179.588 405.994 185.472 403.156C188.217 401.832 190.58 399.674 191.26 396.607C191.855 393.924 191.28 391.153 191.008 388.468C190.654 385.701 190.984 382.891 191.969 380.281C193.114 377.586 194.711 375.106 196.69 372.946C201.067 368.013 206.195 363.798 211.884 360.455C218.356 356.604 225.44 353.886 232.83 352.42C233.287 352.33 233.34 353.053 232.886 353.143H232.886Z" fill="#FFA500"/>
<path d="M200.81 369.179C199.345 367.395 198.564 365.149 198.605 362.843C198.646 360.537 199.506 358.321 201.033 356.59C201.343 356.241 201.901 356.705 201.591 357.055C200.166 358.664 199.365 360.729 199.331 362.876C199.297 365.024 200.034 367.113 201.407 368.766C201.705 369.125 201.106 369.536 200.81 369.179Z" fill="#FFA500"/>
<path d="M191.395 386.729C196.09 387.237 200.804 385.959 204.597 383.15C204.972 382.872 205.386 383.468 205.01 383.746C201.058 386.662 196.15 387.982 191.266 387.443C190.8 387.391 190.933 386.678 191.395 386.729Z" fill="#FFA500"/>
<path d="M218.48 357.557C218.902 358.366 219.519 359.056 220.275 359.567C221.031 360.079 221.902 360.394 222.811 360.486C223.277 360.532 223.144 361.245 222.681 361.2C221.678 361.094 220.716 360.744 219.88 360.181C219.043 359.618 218.358 358.859 217.883 357.971C217.831 357.89 217.812 357.794 217.829 357.7C217.846 357.606 217.898 357.523 217.975 357.466C218.054 357.412 218.151 357.391 218.246 357.408C218.341 357.425 218.425 357.479 218.48 357.558L218.48 357.557Z" fill="#FFA500"/>
<path d="M181.188 126.797H92.2794C89.5319 126.794 86.8978 125.703 84.9551 123.763C83.0123 121.823 81.9196 119.193 81.9165 116.45V68.103C81.9196 65.3599 83.0124 62.7301 84.9552 60.7905C86.8979 58.8508 89.532 57.7599 92.2794 57.7569H181.188C183.936 57.7599 186.57 58.8508 188.513 60.7905C190.455 62.7301 191.548 65.3599 191.551 68.103V116.45C191.548 119.193 190.455 121.823 188.513 123.763C186.57 125.703 183.936 126.794 181.188 126.797Z" fill="#E6E6E6"/>
<path d="M316.927 126.797H228.018C225.27 126.794 222.636 125.703 220.693 123.763C218.751 121.823 217.658 119.193 217.655 116.45V68.103C217.658 65.3599 218.751 62.7301 220.694 60.7905C222.636 58.8508 225.27 57.7599 228.018 57.7569H316.927C319.674 57.7599 322.308 58.8508 324.251 60.7905C326.194 62.7301 327.287 65.3599 327.29 68.103V116.45C327.287 119.193 326.194 121.823 324.251 123.763C322.308 125.703 319.674 126.794 316.927 126.797Z" fill="#FFA500"/>
<path d="M452.665 126.797H363.756C361.009 126.794 358.375 125.703 356.432 123.763C354.489 121.823 353.396 119.193 353.393 116.45V68.103C353.396 65.3599 354.489 62.7301 356.432 60.7905C358.375 58.8508 361.009 57.7599 363.756 57.7569H452.665C455.413 57.7599 458.047 58.8508 459.989 60.7905C461.932 62.7301 463.025 65.3599 463.028 68.103V116.45C463.025 119.193 461.932 121.823 459.99 123.763C458.047 125.703 455.413 126.794 452.665 126.797Z" fill="#E6E6E6"/>
<path d="M181.188 234.521H92.2794C89.5319 234.517 86.8978 233.426 84.9551 231.487C83.0123 229.547 81.9196 226.917 81.9165 224.174V175.827C81.9196 173.083 83.0124 170.454 84.9552 168.514C86.8979 166.574 89.532 165.483 92.2794 165.48H181.188C183.936 165.483 186.57 166.574 188.513 168.514C190.455 170.454 191.548 173.083 191.551 175.827V224.174C191.548 226.917 190.455 229.547 188.513 231.487C186.57 233.426 183.936 234.517 181.188 234.521Z" fill="#F2F2F2"/>
<path d="M316.927 234.521H228.018C225.27 234.517 222.636 233.426 220.693 231.487C218.751 229.547 217.658 226.917 217.655 224.174V175.827C217.658 173.083 218.751 170.454 220.694 168.514C222.636 166.574 225.27 165.483 228.018 165.48H316.927C319.674 165.483 322.308 166.574 324.251 168.514C326.194 170.454 327.287 173.083 327.29 175.827V224.174C327.287 226.917 326.194 229.547 324.251 231.487C322.308 233.426 319.674 234.517 316.927 234.521Z" fill="#E6E6E6"/>
<path d="M323.205 243.417C331.975 243.417 339.084 236.319 339.084 227.563C339.084 218.807 331.975 211.709 323.205 211.709C314.435 211.709 307.325 218.807 307.325 227.563C307.325 236.319 314.435 243.417 323.205 243.417Z" fill="#FFA500"/>
<path d="M329.799 226.231H324.4V220.841C324.4 220.674 324.367 220.51 324.303 220.356C324.239 220.202 324.145 220.062 324.027 219.944C323.91 219.826 323.769 219.733 323.615 219.669C323.461 219.605 323.296 219.573 323.129 219.573C322.962 219.573 322.797 219.605 322.643 219.669C322.489 219.733 322.349 219.826 322.231 219.944C322.113 220.062 322.019 220.202 321.955 220.356C321.892 220.51 321.859 220.674 321.859 220.841V226.231H316.46C316.293 226.231 316.128 226.264 315.974 226.328C315.819 226.392 315.679 226.485 315.561 226.603C315.443 226.721 315.35 226.861 315.286 227.015C315.222 227.168 315.189 227.333 315.189 227.5C315.189 227.666 315.222 227.831 315.286 227.985C315.35 228.139 315.443 228.279 315.561 228.397C315.679 228.515 315.819 228.608 315.974 228.672C316.128 228.736 316.293 228.768 316.46 228.768H321.859V234.159C321.859 234.325 321.892 234.49 321.955 234.644C322.019 234.798 322.113 234.938 322.231 235.056C322.349 235.173 322.489 235.267 322.643 235.331C322.797 235.394 322.962 235.427 323.129 235.427C323.466 235.427 323.789 235.294 324.028 235.056C324.266 234.818 324.4 234.495 324.4 234.159V228.768H329.799C329.965 228.768 330.131 228.735 330.285 228.672C330.439 228.608 330.579 228.515 330.697 228.397C330.815 228.279 330.908 228.139 330.972 227.985C331.036 227.831 331.069 227.666 331.069 227.5C331.069 227.333 331.036 227.168 330.972 227.014C330.908 226.861 330.815 226.721 330.697 226.603C330.579 226.485 330.439 226.392 330.285 226.328C330.131 226.264 329.965 226.231 329.799 226.231L329.799 226.231Z" fill="#FFA500"/>
<path d="M461.031 138.474C469.801 138.474 476.911 131.375 476.911 122.619C476.911 113.863 469.801 106.765 461.031 106.765C452.261 106.765 445.152 113.863 445.152 122.619C445.152 131.375 452.261 138.474 461.031 138.474Z" fill="#FFA500"/>
<path d="M467.625 121.288H462.226V115.897C462.226 115.731 462.193 115.566 462.13 115.412C462.066 115.258 461.972 115.118 461.854 115.001C461.736 114.883 461.596 114.789 461.442 114.726C461.288 114.662 461.123 114.629 460.956 114.629C460.789 114.629 460.624 114.662 460.47 114.726C460.316 114.789 460.175 114.883 460.057 115.001C459.94 115.118 459.846 115.258 459.782 115.412C459.718 115.566 459.685 115.731 459.685 115.897V121.288H454.286C454.12 121.288 453.954 121.321 453.8 121.384C453.646 121.448 453.506 121.542 453.388 121.659C453.27 121.777 453.177 121.917 453.113 122.071C453.049 122.225 453.016 122.39 453.016 122.556C453.016 122.723 453.049 122.888 453.113 123.042C453.177 123.196 453.27 123.335 453.388 123.453C453.506 123.571 453.646 123.664 453.8 123.728C453.954 123.792 454.12 123.825 454.286 123.825H459.685V129.215C459.685 129.382 459.718 129.547 459.782 129.701C459.846 129.855 459.94 129.994 460.058 130.112C460.175 130.23 460.316 130.323 460.47 130.387C460.624 130.451 460.789 130.484 460.956 130.484C461.293 130.484 461.616 130.35 461.854 130.112C462.092 129.874 462.226 129.552 462.226 129.215V123.825H467.625C467.792 123.825 467.957 123.792 468.111 123.728C468.265 123.664 468.406 123.571 468.523 123.453C468.641 123.335 468.735 123.196 468.799 123.042C468.863 122.888 468.896 122.723 468.896 122.556C468.896 122.39 468.863 122.225 468.799 122.071C468.735 121.917 468.641 121.777 468.523 121.659C468.406 121.542 468.265 121.448 468.111 121.384C467.957 121.321 467.792 121.288 467.625 121.288L467.625 121.288Z" fill="#FFA500"/>
<path d="M187.466 137.084C196.236 137.084 203.346 129.985 203.346 121.229C203.346 112.473 196.236 105.375 187.466 105.375C178.696 105.375 171.587 112.473 171.587 121.229C171.587 129.985 178.696 137.084 187.466 137.084Z" fill="#FFA500"/>
<path d="M194.06 119.898H188.661V114.508C188.661 114.341 188.628 114.176 188.564 114.022C188.501 113.868 188.407 113.728 188.289 113.611C188.171 113.493 188.031 113.399 187.877 113.336C187.723 113.272 187.558 113.239 187.391 113.239C187.224 113.239 187.059 113.272 186.905 113.336C186.75 113.399 186.61 113.493 186.492 113.611C186.374 113.728 186.281 113.868 186.217 114.022C186.153 114.176 186.12 114.341 186.12 114.508V119.898H180.721C180.554 119.898 180.389 119.931 180.235 119.994C180.081 120.058 179.941 120.152 179.823 120.269C179.705 120.387 179.611 120.527 179.548 120.681C179.484 120.835 179.451 121 179.451 121.166C179.451 121.503 179.585 121.825 179.823 122.063C180.061 122.301 180.384 122.435 180.721 122.435H186.12V127.825C186.12 127.992 186.153 128.157 186.217 128.311C186.281 128.465 186.374 128.604 186.492 128.722C186.61 128.84 186.75 128.933 186.905 128.997C187.059 129.061 187.224 129.094 187.391 129.094C187.558 129.094 187.723 129.061 187.877 128.997C188.031 128.933 188.171 128.84 188.289 128.722C188.407 128.604 188.501 128.465 188.564 128.311C188.628 128.157 188.661 127.992 188.661 127.825V122.435H194.06C194.227 122.435 194.392 122.402 194.546 122.338C194.7 122.274 194.84 122.181 194.958 122.063C195.076 121.945 195.17 121.806 195.234 121.652C195.298 121.498 195.331 121.333 195.331 121.166C195.331 120.83 195.197 120.507 194.958 120.269C194.72 120.032 194.397 119.898 194.06 119.898V119.898Z" fill="#FFA500"/>
<path d="M306.352 99.3279C306.642 100.203 306.736 101.131 306.628 102.046C306.52 102.961 306.212 103.841 305.726 104.625C305.24 105.408 304.588 106.076 303.816 106.58C303.044 107.085 302.17 107.415 301.256 107.546L293.914 157.586L281.869 151.712L293.984 101.763C293.865 100.216 294.319 98.6795 295.259 97.4442C296.199 96.2089 297.56 95.3608 299.085 95.0606C300.609 94.7604 302.191 95.029 303.531 95.8155C304.87 96.602 305.874 97.8517 306.352 99.3279L306.352 99.3279Z" fill="#9E616A"/>
<path d="M218.654 259.593C219.19 258.843 219.555 257.984 219.723 257.078C219.891 256.172 219.858 255.24 219.626 254.348C219.395 253.456 218.97 252.626 218.382 251.915C217.794 251.205 217.057 250.632 216.223 250.237L221.177 197.01L210.802 202.32L207.562 253.611C206.99 255.053 206.967 256.655 207.499 258.113C208.031 259.571 209.08 260.783 210.447 261.52C211.814 262.258 213.405 262.469 214.917 262.113C216.43 261.758 217.759 260.861 218.654 259.593H218.654Z" fill="#9E616A"/>
<path d="M225.742 232.672L270.265 230.962L272.833 184.8H221.461L225.742 232.672Z" fill="#9E616A"/>
<path d="M217.479 395.696L225.087 395.696L228.706 366.397H217.477L217.479 395.696Z" fill="#9E616A"/>
<path d="M215.591 391.949L227.618 391.232V396.377L239.053 404.261C239.617 404.651 240.043 405.21 240.267 405.858C240.49 406.506 240.501 407.208 240.297 407.862C240.092 408.516 239.684 409.088 239.131 409.494C238.578 409.901 237.91 410.12 237.224 410.119H222.905L220.437 405.031L219.473 410.119H214.075L215.591 391.949Z" fill="#FFE5B4"/>
<path d="M251.319 395.696L258.927 395.696L262.546 366.397H251.317L251.319 395.696Z" fill="#9E616A"/>
<path d="M225.124 221.835C225.124 221.835 211.803 232.573 219.024 270.921C217.925 271.052 219.17 273.216 219.17 273.216L220.212 304.463L221.017 308.044L218.34 313.823L219.444 320.101L216.041 377.085L228.611 378.707L240.639 319.533L242.93 312.881L245.228 307.049L243.988 300.831L245.005 291.179L251.939 258.633L253.637 315.079L251.268 320.467L252.586 326.383L249.649 329.523L248.489 382.335L261.891 382.961L272.981 329.723L272.121 322.929L273.596 317.906V306.172L276.123 300.634L281.632 270.439C281.632 270.439 283.294 246.838 271.169 219.066L225.124 221.835Z" fill="#FFE5B4"/>
<path d="M230.553 146.435C230.553 146.435 213.728 149.757 210.828 164.084C207.929 178.411 206.064 210.831 206.064 210.831L206.699 215.346L222.975 219.114L233.363 173.688L230.553 146.435Z" fill="#FFE5B4"/>
<path d="M268.952 151.271C268.952 151.271 270.658 148.885 280.209 148.517C280.602 148.502 280.115 147.723 280.115 147.723L284.708 125.307L300.016 133.769L297.432 157.269L272.278 185.833L268.952 151.271Z" fill="#FFE5B4"/>
<path d="M259.411 218.095C252.204 218.095 241.357 217.301 225.027 214.881C223.975 214.722 223.001 214.232 222.248 213.482C221.495 212.732 221.002 211.761 220.841 210.712C220.307 210.149 219.96 209.437 219.847 208.671C219.733 207.905 219.859 207.123 220.206 206.43L220.221 206.401L219.851 205.965C219.279 205.294 218.943 204.454 218.894 203.574C218.846 202.694 219.087 201.822 219.582 201.092L214.525 164.97C214.012 161.383 214.797 157.731 216.74 154.671C218.683 151.61 221.656 149.343 225.125 148.276L226.992 147.695L234.052 138.475L234.191 138.477L256.856 138.778L264.212 148.104L276.102 150.903L276.132 151.084L278.893 167.009C280.329 175.291 277.036 178.55 272.833 185.833L274.067 206.29L274.626 207.305C274.937 207.867 275.041 208.52 274.921 209.15C274.8 209.781 274.463 210.349 273.967 210.758C274.342 211.828 274.367 212.989 274.04 214.074L273.749 215.034C273.749 215.062 273.672 215.452 273.044 215.928C271.912 216.786 268.662 218.095 259.411 218.095Z" fill="#FFE5B4"/>
<path d="M249.431 391.949L261.458 391.232V396.377L272.893 404.261C273.457 404.651 273.883 405.21 274.107 405.858C274.33 406.506 274.341 407.208 274.137 407.862C273.932 408.516 273.524 409.088 272.971 409.494C272.418 409.901 271.75 410.12 271.064 410.119H256.745L254.277 405.031L253.313 410.119H247.915L249.431 391.949Z" fill="#FFE5B4"/>
<path d="M262.063 118.383C263.635 108.711 257.057 99.599 247.37 98.0295C237.683 96.4601 228.556 103.028 226.984 112.7C225.412 122.371 231.991 131.483 241.677 133.053C251.364 134.622 260.491 128.054 262.063 118.383Z" fill="#9E616A"/>
<path d="M254.914 98.2062C248.401 93.7343 242.666 93.0531 237.955 94.3215C237.345 93.3784 236.488 92.6191 235.478 92.1252C231.804 82.8818 220.622 77.3307 211.026 80.0291C201.368 82.7451 194.704 93.4263 196.522 103.278C197.648 109.385 201.497 114.673 203.046 120.688C206.043 132.33 198.731 145.666 187.294 149.418C198.123 151.589 210.044 144.985 213.929 134.661C215.816 129.647 215.93 124.172 216.17 118.821C216.233 115.127 216.686 111.451 217.522 107.852C217.937 106.238 218.523 104.672 219.27 103.181C220.898 99.9055 223.603 97.2862 226.931 95.7605C226.633 96.681 226.559 97.6591 226.714 98.614C226.869 99.569 227.249 100.473 227.824 101.253C225.284 104.429 223.902 107.864 223.902 109.921C218.626 119.549 226.17 127.819 235.813 133.086C239.659 135.198 244.1 135.971 248.435 135.283L248.839 133.564L249.385 135.112L251.21 140.305C253.315 141.321 255.401 142.436 257.47 143.648C256.684 139.964 256.048 136.286 255.611 132.69C255.005 127.796 257.117 120.51 258.639 116.079C259.584 113.348 260.068 110.48 260.074 107.591V107.465L261.557 112.221L266.955 109.921C265.951 104.17 266.955 97.6399 254.914 98.2062Z" fill="#2F2E41"/>
<path d="M476.945 411H82.055C81.8359 410.999 81.6262 410.911 81.4716 410.756C81.3171 410.601 81.2303 410.391 81.2303 410.173C81.2303 409.954 81.3171 409.744 81.4716 409.589C81.6262 409.434 81.8359 409.346 82.055 409.345H476.945C477.164 409.346 477.374 409.434 477.528 409.589C477.683 409.744 477.77 409.954 477.77 410.173C477.77 410.391 477.683 410.601 477.528 410.756C477.374 410.911 477.164 410.999 476.945 411Z" fill="#CCCCCC"/>
<path d="M185.651 245.501C194.421 245.501 201.53 238.402 201.53 229.646C201.53 220.89 194.421 213.792 185.651 213.792C176.881 213.792 169.771 220.89 169.771 229.646C169.771 238.402 176.881 245.501 185.651 245.501Z" fill="#E6E6E6"/>
<path d="M424.575 220.534H368.878C367.157 220.533 365.507 219.849 364.29 218.634C363.073 217.419 362.389 215.771 362.387 214.053V183.766C362.389 182.048 363.073 180.4 364.29 179.185C365.507 177.97 367.157 177.287 368.878 177.285H424.575C426.296 177.287 427.946 177.97 429.163 179.185C430.38 180.4 431.065 182.048 431.067 183.766V214.053C431.065 215.771 430.38 217.419 429.163 218.634C427.946 219.849 426.296 220.533 424.575 220.534Z" fill="#F2F2F2"/>
<path d="M425.395 208.232C430.053 208.232 433.828 204.463 433.828 199.813C433.828 195.163 430.053 191.393 425.395 191.393C420.738 191.393 416.963 195.163 416.963 199.813C416.963 204.463 420.738 208.232 425.395 208.232Z" fill="#FFA500"/>
<path d="M428.897 199.106H426.03V196.243C426.03 196.154 426.013 196.067 425.979 195.985C425.945 195.903 425.895 195.829 425.832 195.767C425.77 195.704 425.695 195.654 425.613 195.621C425.532 195.587 425.444 195.569 425.355 195.569C425.176 195.569 425.005 195.64 424.878 195.767C424.752 195.893 424.681 196.064 424.681 196.243V199.106H421.813C421.635 199.106 421.463 199.177 421.336 199.303C421.21 199.429 421.139 199.601 421.139 199.779C421.139 199.868 421.156 199.955 421.19 200.037C421.224 200.119 421.274 200.193 421.336 200.256C421.399 200.318 421.473 200.368 421.555 200.402C421.637 200.435 421.725 200.453 421.813 200.453H424.681V203.315C424.681 203.404 424.698 203.491 424.732 203.573C424.766 203.655 424.816 203.729 424.878 203.792C424.941 203.854 425.015 203.904 425.097 203.938C425.179 203.972 425.267 203.989 425.355 203.989C425.534 203.989 425.706 203.918 425.832 203.792C425.959 203.665 426.03 203.494 426.03 203.315V200.453H428.897C429.076 200.453 429.248 200.382 429.374 200.256C429.501 200.129 429.572 199.958 429.572 199.779C429.572 199.691 429.554 199.603 429.521 199.521C429.487 199.44 429.437 199.365 429.374 199.303C429.312 199.24 429.237 199.191 429.155 199.157C429.074 199.123 428.986 199.106 428.897 199.106L428.897 199.106Z" fill="#FFA500"/>
<path d="M447.266 211.94H401.367C399.419 211.937 397.551 211.164 396.174 209.788C394.796 208.413 394.021 206.548 394.019 204.603V177.249C394.02 176.891 394.163 176.548 394.417 176.295C394.67 176.042 395.014 175.9 395.373 175.9C395.731 175.9 396.075 176.042 396.329 176.295C396.583 176.548 396.726 176.891 396.727 177.249V184.575L450.041 189.413C451.106 189.432 452.121 189.868 452.868 190.626C453.614 191.384 454.033 192.404 454.035 193.468C454.035 193.551 454.027 193.635 454.012 193.717L451.325 208.023C451.288 209.073 450.844 210.069 450.087 210.799C449.33 211.53 448.319 211.938 447.266 211.94ZM396.727 187.289V204.603C396.728 205.832 397.217 207.009 398.087 207.878C398.957 208.746 400.137 209.235 401.367 209.236H447.266C447.625 209.236 447.969 209.093 448.223 208.84C448.477 208.587 448.619 208.243 448.62 207.885C448.62 207.801 448.628 207.718 448.643 207.636L451.323 193.364C451.297 193.024 451.143 192.707 450.893 192.476C450.643 192.245 450.314 192.117 449.974 192.116C449.933 192.116 449.892 192.114 449.851 192.11L396.727 187.289Z" fill="#FFA500"/>
<path d="M389.171 224.554C390.417 224.554 391.427 223.546 391.427 222.302C391.427 221.058 390.417 220.049 389.171 220.049C387.924 220.049 386.914 221.058 386.914 222.302C386.914 223.546 387.924 224.554 389.171 224.554Z" fill="#FFA500"/>
<path d="M445.461 224.554C446.707 224.554 447.717 223.546 447.717 222.302C447.717 221.058 446.707 220.049 445.461 220.049C444.215 220.049 443.205 221.058 443.205 222.302C443.205 223.546 444.215 224.554 445.461 224.554Z" fill="#FFA500"/>
<path d="M447.717 220.049H387.366C387.007 220.049 386.662 219.907 386.408 219.653C386.154 219.4 386.012 219.056 386.012 218.697C386.012 218.339 386.154 217.995 386.408 217.742C386.662 217.488 387.007 217.346 387.366 217.346H447.717C448.076 217.346 448.421 217.488 448.675 217.742C448.928 217.995 449.071 218.339 449.071 218.697C449.071 219.056 448.928 219.4 448.675 219.653C448.421 219.907 448.076 220.049 447.717 220.049Z" fill="#FFA500"/>
<path d="M398.983 178.15H387.25C386.892 178.149 386.548 178.006 386.295 177.753C386.042 177.499 385.9 177.156 385.9 176.798C385.9 176.44 386.042 176.097 386.295 175.844C386.548 175.59 386.892 175.447 387.25 175.447H398.983C399.341 175.447 399.685 175.59 399.938 175.844C400.191 176.097 400.333 176.44 400.333 176.798C400.333 177.156 400.191 177.499 399.938 177.753C399.685 178.006 399.341 178.149 398.983 178.15Z" fill="#FFA500"/>
<path d="M408.395 219.361C408.071 219.361 407.758 219.245 407.513 219.035L398.615 211.4C398.48 211.285 398.369 211.144 398.288 210.985C398.208 210.827 398.159 210.654 398.146 210.477C398.132 210.299 398.153 210.121 398.209 209.952C398.264 209.783 398.353 209.627 398.469 209.492C398.585 209.358 398.726 209.247 398.885 209.167C399.044 209.087 399.217 209.039 399.395 209.025C399.572 209.012 399.75 209.034 399.92 209.09C400.089 209.145 400.245 209.234 400.38 209.35L409.278 216.984C409.487 217.164 409.637 217.404 409.706 217.671C409.775 217.938 409.761 218.221 409.665 218.479C409.569 218.738 409.395 218.961 409.168 219.119C408.941 219.277 408.671 219.361 408.395 219.361V219.361Z" fill="#FFA500"/>
<path d="M410.27 211.109C410.092 211.109 409.916 211.074 409.752 211.006C409.587 210.939 409.438 210.839 409.313 210.714C409.187 210.588 409.087 210.439 409.019 210.275C408.951 210.111 408.916 209.935 408.916 209.758V188.061C408.916 187.703 409.059 187.359 409.313 187.106C409.566 186.852 409.911 186.71 410.27 186.71C410.629 186.71 410.973 186.852 411.227 187.106C411.481 187.359 411.623 187.703 411.623 188.061V209.758C411.624 209.935 411.589 210.111 411.521 210.275C411.452 210.439 411.353 210.588 411.227 210.713C411.101 210.839 410.952 210.938 410.788 211.006C410.624 211.074 410.448 211.109 410.27 211.109H410.27Z" fill="#FFA500"/>
<path d="M438.866 211.109C438.688 211.109 438.512 211.074 438.348 211.006C438.184 210.939 438.035 210.839 437.909 210.714C437.783 210.588 437.684 210.439 437.616 210.275C437.547 210.111 437.512 209.935 437.512 209.758V189.864C437.513 189.506 437.656 189.163 437.91 188.91C438.164 188.657 438.508 188.515 438.866 188.515C439.225 188.515 439.569 188.657 439.822 188.91C440.076 189.163 440.219 189.506 440.22 189.864V209.758C440.22 209.935 440.185 210.111 440.117 210.275C440.049 210.439 439.949 210.588 439.823 210.713C439.698 210.839 439.549 210.939 439.384 211.006C439.22 211.074 439.044 211.109 438.866 211.109H438.866Z" fill="#FFA500"/>
</g>
<rect x="1" y="1" width="557" height="409" stroke="white" stroke-width="2"/>
<defs>
<clipPath id="clip0_4_66">
<rect width="559" height="411" fill="white"/>
</clipPath>
</defs>
</svg>
