<svg width="64" height="64" viewBox="0 0 64 64" fill="none" xmlns="http://www.w3.org/2000/svg">
<path d="M60.4167 28.4233H58.8942V19.2748C58.8942 15.534 55.8491 12.502 52.1214 12.502H50.717L50.7301 9.10253C50.7301 6.58243 48.6825 4.53485 46.1624 4.53485H5.55209C2.5201 4.53485 0.0393765 6.9762 0 10.0082C0 10.0344 0 10.0607 0 10.0869V54.8974C0 57.4175 2.04758 59.4651 4.56768 59.4651H52.1345C55.8753 59.4651 58.9073 56.42 58.9073 52.6924V43.5308H60.4299C62.3987 43.5308 64 41.9294 64 39.9606V31.9934C63.9869 30.0246 62.3856 28.4233 60.4167 28.4233ZM5.55209 7.68497H46.1624C46.9368 7.68497 47.58 8.315 47.58 9.0894L47.5669 12.502H5.55209C4.22641 12.502 3.15012 11.4257 3.15012 10.1001C3.15012 8.77439 4.22641 7.68497 5.55209 7.68497ZM55.7441 52.6792C55.7441 54.6743 54.1165 56.3019 52.1214 56.3019H4.55455C3.78015 56.3019 3.137 55.6719 3.137 54.8843V15.1009C3.87203 15.4553 4.68581 15.6522 5.55209 15.6522H52.1214C54.1165 15.6522 55.7441 17.2797 55.7441 19.2748V28.4233H44.9943C43.0254 28.4233 41.4241 30.0246 41.4241 31.9934V39.9606C41.4241 41.9294 43.0254 43.5308 44.9943 43.5308H55.7441V52.6792ZM60.8368 39.9606C60.8368 40.1969 60.653 40.3806 60.4167 40.3806H45.0074C44.7711 40.3806 44.5874 40.1969 44.5874 39.9606V31.9934C44.5874 31.7703 44.7711 31.5734 45.0074 31.5734H60.4167C60.6399 31.5734 60.8368 31.7572 60.8368 31.9934V39.9606Z" fill="white"/>
</svg>
